<svg xmlns="http://www.w3.org/2000/svg" version="1.1" xmlns:xlink="http://www.w3.org/1999/xlink" xmlns:svgjs="http://svgjs.dev/svgjs" width="1500" height="924" viewBox="0 0 1500 924"><g transform="matrix(1,0,0,1,-0.9090909090909918,-0.9468787597496657)"><svg viewBox="0 0 396 244" data-background-color="#77d4fc" preserveAspectRatio="xMidYMid meet" height="924" width="1500" xmlns="http://www.w3.org/2000/svg" xmlns:xlink="http://www.w3.org/1999/xlink"><g id="tight-bounds" transform="matrix(1,0,0,1,0.2400000000000091,0.2500415772499167)"><svg viewBox="0 0 395.52 243.49991684550017" height="243.49991684550017" width="395.52"><g><svg viewBox="0 0 397.4975999999999 244.71741642972762" height="243.49991684550017" width="395.52"><g><rect width="397.4975999999999" height="7.4953712511983905" x="0" y="134.48593416688874" fill="#000000" opacity="1" stroke-width="0" stroke="transparent" fill-opacity="1" class="rect-yte-0" data-fill-palette-color="secondary" rx="1%" id="yte-0" data-palette-color="#000000"></rect></g><g transform="matrix(1,0,0,1,0.9887999999999693,161.60269612803054)"><svg viewBox="0 0 395.52 83.11472030169703" height="83.11472030169703" width="395.52"><g id="textblocktransform"><svg viewBox="0 0 395.52 83.11472030169703" height="83.11472030169703" width="395.52" id="textblock"><g><svg viewBox="0 0 395.52 83.11472030169703" height="83.11472030169703" width="395.52"><g transform="matrix(1,0,0,1,0,0)"><svg width="395.52" viewBox="-0.5 -34.15 238.62 50.15" height="83.11472030169703" data-palette-color="#000000"><path d="M8-12.5L8-12.5 8.25-2.5Q8.25 0.65 7.43 3.08 6.6 5.5 5.4 6.7L5.4 6.7Q2.95 9.25 1.1 9.6L1.1 9.6 0.25 9.8Q-0.5 9.8-0.5 9.35L-0.5 9.35-0.25 8.6Q3.4 3.55 3.4-16.2L3.4-16.2Q3.4-18 3.35-18.9L3.35-18.9Q2.3-18.9 1.25-18.75L1.25-18.75 1.2-18.75Q0.65-18.75 0.65-19.3L0.65-19.3 0.8-21.2Q0.85-21.65 1.5-21.65L1.5-21.65 3.3-21.65 3.3-25 3.4-29.75Q3.4-30.1 3.53-30.53 3.65-30.95 4.6-31.83 5.55-32.7 7.4-33.43 9.25-34.15 10.58-34.15 11.9-34.15 11.9-33.35L11.9-33.35Q11.9-33.05 11.45-32.85L11.45-32.85Q10-32.4 9.08-30.28 8.15-28.15 8.15-23.05L8.15-23.05 8.15-21.65Q10.7-21.75 11.5-21.9L11.5-21.9Q11.85-21.9 11.85-21.3 11.85-20.7 11.33-19.83 10.8-18.95 10.03-18.93 9.25-18.9 8.1-18.95L8.1-18.95Q8-15.15 8-12.5ZM28.1-17.2L27.85-13.4 28.05-11.65Q28.05-10.7 26.25-10.7L26.25-10.7Q22.6-10.7 22.6-13.45L22.6-13.45Q22.6-14.1 22.95-15.25 23.3-16.4 23.3-17.25 23.3-18.1 22.8-18.73 22.3-19.35 21.35-19.35 20.4-19.35 19.72-18.68 19.05-18 18.9-17.3L18.9-17.3 18.7-16.6Q18.4-15.05 18.4-11.43 18.4-7.8 18.5-5.73 18.6-3.65 18.7-2.88 18.8-2.1 18.8-1.95L18.8-1.95Q18.8-0.7 17.25 0.08 15.7 0.85 14.15 0.85 12.6 0.85 12.6 0.2L12.6 0.2 12.85-1.35Q13.55-5.7 13.55-12.7 13.55-19.7 13.05-22.2L13.05-22.2Q13.05-22.8 14.1-22.8L14.1-22.8Q16.8-22.8 17.7-20.95L17.7-20.95Q17.75-20.75 17.87-20.75 18-20.75 18.55-21.2L18.55-21.2Q20.2-22.55 22.45-22.55L22.45-22.55Q23.85-22.55 25.25-22L25.25-22Q28.1-20.85 28.1-17.2L28.1-17.2ZM45.9-15L45.9-15 45.8-8.6Q45.8-1.95 47.25-0.6L47.25-0.6Q47.45-0.4 47.45-0.15L47.45-0.15Q47.45 0.6 44.22 0.6 41 0.6 40.8-1.3L40.8-1.3Q40.75-1.75 40.75-3.15L40.75-3.15 40.95-11.15Q40.95-11.5 40.55-11.5L40.55-11.5Q38.15-11.5 36.05-10.15 33.95-8.8 33.95-6.7L33.95-6.7Q33.95-5.6 34.55-4.85 35.15-4.1 36.02-4.1 36.9-4.1 37.47-4.45 38.05-4.8 38.15-4.85L38.15-4.85Q39-4.75 39-3.08 39-1.4 37.45-0.38 35.9 0.65 34.2 0.65 32.5 0.65 31.27 0.05 30.05-0.55 29.5-1.3 28.95-2.05 28.6-3L28.6-3Q28.25-4.15 28.25-5L28.25-5Q28.25-8.5 30.45-10.6 32.65-12.7 36.1-13.6L36.1-13.6Q40.65-14.5 40.85-15.25L40.85-15.25Q41-15.8 41-17.1L41-17.1Q41-19.75 38.3-19.75L38.3-19.75Q37.15-19.75 36.25-19.03 35.35-18.3 35.35-17.2L35.35-17.2 35.65-16Q35.55-15.15 33.85-15L33.85-15 33.3-14.95Q31.8-14.95 30.92-15.7 30.05-16.45 30.05-17.7L30.05-17.7Q30.05-18.5 30.57-19.48 31.1-20.45 31.9-21.05 32.7-21.65 34.37-22.13 36.05-22.6 37.6-22.6 39.15-22.6 40-22.5 40.85-22.4 42.32-22.03 43.8-21.65 44.77-20.6 45.75-19.55 45.82-18.38 45.9-17.2 45.9-15ZM52.24-20.18Q53.34-21.3 55.14-22.08 56.94-22.85 58.59-22.85 60.24-22.85 61.94-22.1L61.94-22.1Q62.14-22.1 62.24-22.2L62.24-22.2Q63.54-23.5 66.04-23.5L66.04-23.5Q66.64-23.5 66.64-22.95L66.64-22.95Q66.64-22.9 66.54-22.5 66.44-22.1 66.29-21.33 66.14-20.55 66.04-19.45L66.04-19.45Q65.69-16.6 65.67-13.15 65.64-9.7 65.64-6.25L65.64-6.25 65.79 4.25Q65.79 9.3 63.19 12.65L63.19 12.65Q62.14 14 60.02 15 57.89 16 55.04 16L55.04 16Q54.39 15.6 54.39 15.2 54.39 14.8 54.94 14.55L54.94 14.55Q58.09 13.1 59.44 7.68 60.79 2.25 60.79-8.8L60.79-8.8 60.69-15.8 60.54-19.2Q60.54-19.65 59.14-19.85L59.14-19.85Q57.34-19.85 56.12-18.68 54.89-17.5 54.44-15.6L54.44-15.6Q53.64-12.55 53.64-10.33 53.64-8.1 54.37-6.4 55.09-4.7 56.89-4.7L56.89-4.7Q57.39-4.7 57.82-4.9 58.24-5.1 58.39-5.1L58.39-5.1Q58.89-5.1 58.89-4.1 58.89-3.1 58.74-2.48 58.59-1.85 58.14-1.1L58.14-1.1Q57.14 0.55 54.24 0.55L54.24 0.55Q51.34 0.55 50.09-1.55L50.09-1.55Q48.79-3.7 48.59-5.4L48.59-5.4Q48.29-7.95 48.29-8.75 48.29-9.55 48.32-10.03 48.34-10.5 48.57-11.93 48.79-13.35 49.17-14.63 49.54-15.9 50.34-17.48 51.14-19.05 52.24-20.18ZM84.39-17.2L84.14-13.4 84.34-11.65Q84.34-10.7 82.54-10.7L82.54-10.7Q78.89-10.7 78.89-13.45L78.89-13.45Q78.89-14.1 79.24-15.25 79.59-16.4 79.59-17.25 79.59-18.1 79.09-18.73 78.59-19.35 77.64-19.35 76.69-19.35 76.02-18.68 75.34-18 75.19-17.3L75.19-17.3 74.99-16.6Q74.69-15.05 74.69-11.43 74.69-7.8 74.79-5.73 74.89-3.65 74.99-2.88 75.09-2.1 75.09-1.95L75.09-1.95Q75.09-0.7 73.54 0.08 71.99 0.85 70.44 0.85 68.89 0.85 68.89 0.2L68.89 0.2 69.14-1.35Q69.84-5.7 69.84-12.7 69.84-19.7 69.34-22.2L69.34-22.2Q69.34-22.8 70.39-22.8L70.39-22.8Q73.09-22.8 73.99-20.95L73.99-20.95Q74.04-20.75 74.17-20.75 74.29-20.75 74.84-21.2L74.84-21.2Q76.49-22.55 78.74-22.55L78.74-22.55Q80.14-22.55 81.54-22L81.54-22Q84.39-20.85 84.39-17.2L84.39-17.2ZM102.19-15L102.19-15 102.09-8.6Q102.09-1.95 103.54-0.6L103.54-0.6Q103.74-0.4 103.74-0.15L103.74-0.15Q103.74 0.6 100.51 0.6 97.29 0.6 97.09-1.3L97.09-1.3Q97.04-1.75 97.04-3.15L97.04-3.15 97.24-11.15Q97.24-11.5 96.84-11.5L96.84-11.5Q94.44-11.5 92.34-10.15 90.24-8.8 90.24-6.7L90.24-6.7Q90.24-5.6 90.84-4.85 91.44-4.1 92.31-4.1 93.19-4.1 93.76-4.45 94.34-4.8 94.44-4.85L94.44-4.85Q95.29-4.75 95.29-3.08 95.29-1.4 93.74-0.38 92.19 0.65 90.49 0.65 88.79 0.65 87.56 0.05 86.34-0.55 85.79-1.3 85.24-2.05 84.89-3L84.89-3Q84.54-4.15 84.54-5L84.54-5Q84.54-8.5 86.74-10.6 88.94-12.7 92.39-13.6L92.39-13.6Q96.94-14.5 97.14-15.25L97.14-15.25Q97.29-15.8 97.29-17.1L97.29-17.1Q97.29-19.75 94.59-19.75L94.59-19.75Q93.44-19.75 92.54-19.03 91.64-18.3 91.64-17.2L91.64-17.2 91.94-16Q91.84-15.15 90.14-15L90.14-15 89.59-14.95Q88.09-14.95 87.21-15.7 86.34-16.45 86.34-17.7L86.34-17.7Q86.34-18.5 86.86-19.48 87.39-20.45 88.19-21.05 88.99-21.65 90.66-22.13 92.34-22.6 93.89-22.6 95.44-22.6 96.29-22.5 97.14-22.4 98.61-22.03 100.09-21.65 101.06-20.6 102.04-19.55 102.11-18.38 102.19-17.2 102.19-15ZM105.24 0.35L105.24 0.35Q106.14-5.05 106.14-12.6 106.14-20.15 105.69-22.4L105.69-22.4Q105.69-23.05 107.19-23.05L107.19-23.05Q109.49-23.05 110.24-21.3L110.24-21.3Q110.29-21.15 110.49-21.15 110.69-21.15 110.79-21.25L110.79-21.25Q112.34-22.85 115.59-22.85 118.84-22.85 120.74-21.2 122.64-19.55 122.64-16.4L122.64-16.4Q122.64-14.5 122.31-11 121.99-7.5 121.99-5.8L121.99-5.8Q121.99-1.75 123.34 0.05L123.34 0.05Q123.54 0.3 123.54 0.55L123.54 0.55Q123.54 1.2 122.14 1.2L122.14 1.2Q115.94 1.2 115.94-4.3L115.94-4.3Q115.94-6.4 116.89-10.15 117.84-13.9 117.84-15.85L117.84-15.85Q117.84-19.85 114.54-19.85L114.54-19.85Q112.94-19.85 112.11-18.9 111.29-17.95 111.19-16.73 111.09-15.5 111.09-12.1L111.09-12.1Q111.09-6.9 111.44-3.05L111.44-3.05 111.54-1.95Q111.54-0.55 109.71 0.23 107.89 1 106.56 1 105.24 1 105.24 0.35ZM141.53-5.75L141.53-5.75Q141.53-2.9 139.26-1.03 136.98 0.85 133.83 0.85L133.83 0.85Q129.23 0.85 127.08-1.93 124.93-4.7 124.93-9.45L124.93-9.45Q124.93-14.5 127.18-18.4L127.18-18.4Q128.28-20.4 130.33-21.55 132.38-22.7 135.13-22.7L135.13-22.7Q139.28-22.7 140.98-19.9L140.98-19.9Q141.68-18.75 141.68-17.2L141.68-17.2Q141.68-14.8 139.68-13.6L139.68-13.6Q138.88-13.15 138.21-13.15 137.53-13.15 137.11-13.23 136.68-13.3 135.98-13.9 135.28-14.5 135.28-15.55L135.28-15.55Q135.33-16.1 136.13-16.45L136.13-16.45Q136.88-16.9 136.88-18.05L136.88-18.05Q136.88-20 134.48-20L134.48-20Q133.88-20 133.06-19.48 132.23-18.95 131.68-18.13 131.13-17.3 130.66-15.53 130.18-13.75 130.18-12.13 130.18-10.5 130.31-9.68 130.43-8.85 130.86-7.43 131.28-6 132.46-5.1 133.63-4.2 135.38-4.2L135.38-4.2Q137.48-4.2 139.08-5.95L139.08-5.95Q139.73-6.65 140.13-7.65L140.13-7.65Q140.33-8.05 140.63-8.05L140.63-8.05Q141.08-8.05 141.31-7.23 141.53-6.4 141.53-5.75ZM148.93-12.7L148.93-12.7 148.98-11.45Q148.98-11.15 149.38-11.15L149.38-11.15Q150.98-11.3 152.18-11.98 153.38-12.65 153.98-13.5L153.98-13.5Q155.18-15.35 155.28-16.7L155.28-16.7 155.33-17.3Q155.33-20 153.18-20L153.18-20Q151.58-20 150.58-18.6L150.58-18.6Q148.93-16.4 148.93-12.7ZM159.83-6.05L159.83-6.05Q159.83-4.15 159.06-2.73 158.28-1.3 157.31-0.63 156.33 0.05 155.03 0.45L155.03 0.45Q153.38 0.95 151.88 0.95L151.88 0.95Q147.68 0.95 145.68-2.2 143.68-5.35 143.68-10.23 143.68-15.1 146.16-18.9 148.63-22.7 153.58-22.7L153.58-22.7Q158.08-22.7 159.68-19.55L159.68-19.55Q160.33-18.35 160.33-17.28 160.33-16.2 160.23-15.58 160.13-14.95 159.53-13.7 158.93-12.45 157.93-11.45 156.93-10.45 154.78-9.55 152.63-8.65 149.73-8.35L149.73-8.35Q149.33-8.35 149.33-8L149.33-8Q149.33-7.55 149.66-6.68 149.98-5.8 150.38-5.2L150.38-5.2Q151.48-3.8 153.63-3.8L153.63-3.8Q155.78-3.8 157.28-5.2L157.28-5.2Q158.08-5.95 158.58-7.05L158.58-7.05Q158.78-7.45 159.11-7.45 159.43-7.45 159.63-6.9 159.83-6.35 159.83-6.05ZM174.88-20.18Q175.98-21.3 177.78-22.08 179.58-22.85 181.23-22.85 182.88-22.85 184.58-22.1L184.58-22.1Q184.78-22.1 184.88-22.2L184.88-22.2Q186.18-23.5 188.68-23.5L188.68-23.5Q189.28-23.5 189.28-22.95L189.28-22.95Q189.28-22.9 189.18-22.5 189.08-22.1 188.93-21.33 188.78-20.55 188.68-19.45L188.68-19.45Q188.33-16.6 188.3-13.15 188.28-9.7 188.28-6.25L188.28-6.25 188.43 4.25Q188.43 9.3 185.83 12.65L185.83 12.65Q184.78 14 182.65 15 180.53 16 177.68 16L177.68 16Q177.03 15.6 177.03 15.2 177.03 14.8 177.58 14.55L177.58 14.55Q180.73 13.1 182.08 7.68 183.43 2.25 183.43-8.8L183.43-8.8 183.33-15.8 183.18-19.2Q183.18-19.65 181.78-19.85L181.78-19.85Q179.98-19.85 178.75-18.68 177.53-17.5 177.08-15.6L177.08-15.6Q176.28-12.55 176.28-10.33 176.28-8.1 177-6.4 177.73-4.7 179.53-4.7L179.53-4.7Q180.03-4.7 180.45-4.9 180.88-5.1 181.03-5.1L181.03-5.1Q181.53-5.1 181.53-4.1 181.53-3.1 181.38-2.48 181.23-1.85 180.78-1.1L180.78-1.1Q179.78 0.55 176.88 0.55L176.88 0.55Q173.98 0.55 172.73-1.55L172.73-1.55Q171.43-3.7 171.23-5.4L171.23-5.4Q170.93-7.95 170.93-8.75 170.93-9.55 170.95-10.03 170.98-10.5 171.2-11.93 171.43-13.35 171.8-14.63 172.18-15.9 172.98-17.48 173.78-19.05 174.88-20.18ZM208.22-15L208.22-15 208.12-8.6Q208.12-1.95 209.57-0.6L209.57-0.6Q209.77-0.4 209.77-0.15L209.77-0.15Q209.77 0.6 206.55 0.6 203.32 0.6 203.12-1.3L203.12-1.3Q203.07-1.75 203.07-3.15L203.07-3.15 203.27-11.15Q203.27-11.5 202.87-11.5L202.87-11.5Q200.47-11.5 198.37-10.15 196.27-8.8 196.27-6.7L196.27-6.7Q196.27-5.6 196.87-4.85 197.47-4.1 198.35-4.1 199.22-4.1 199.8-4.45 200.37-4.8 200.47-4.85L200.47-4.85Q201.32-4.75 201.32-3.08 201.32-1.4 199.77-0.38 198.22 0.65 196.52 0.65 194.82 0.65 193.6 0.05 192.37-0.55 191.82-1.3 191.27-2.05 190.92-3L190.92-3Q190.57-4.15 190.57-5L190.57-5Q190.57-8.5 192.77-10.6 194.97-12.7 198.42-13.6L198.42-13.6Q202.97-14.5 203.17-15.25L203.17-15.25Q203.32-15.8 203.32-17.1L203.32-17.1Q203.32-19.75 200.62-19.75L200.62-19.75Q199.47-19.75 198.57-19.03 197.67-18.3 197.67-17.2L197.67-17.2 197.97-16Q197.87-15.15 196.17-15L196.17-15 195.62-14.95Q194.12-14.95 193.25-15.7 192.37-16.45 192.37-17.7L192.37-17.7Q192.37-18.5 192.9-19.48 193.42-20.45 194.22-21.05 195.02-21.65 196.7-22.13 198.37-22.6 199.92-22.6 201.47-22.6 202.32-22.5 203.17-22.4 204.65-22.03 206.12-21.65 207.1-20.6 208.07-19.55 208.15-18.38 208.22-17.2 208.22-15ZM210.52-19.5L210.52-19.5 210.67-21.5Q210.72-21.95 211.37-21.95L211.37-21.95 213.12-21.95 212.92-25.95 212.92-26.15Q212.92-27.3 214.67-28.35 216.42-29.4 217.87-29.4L217.87-29.4Q218.32-29.4 218.32-29L218.32-29 218.32-28.95Q218.12-27.6 217.92-22L217.92-22Q220.12-22 220.72-22.1 221.32-22.2 221.37-22.2L221.37-22.2Q221.72-22.2 221.72-21.6 221.72-21 221.17-20.08 220.62-19.15 219.97-19.1L219.97-19.1 217.87-19.1Q217.82-17.4 217.82-13.38 217.82-9.35 217.9-6.75 217.97-4.15 218.07-2.83 218.17-1.5 218.3-0.7 218.42 0.1 218.5 0.45 218.57 0.8 218.57 0.9L218.57 0.9Q218.57 1.4 217.92 1.45L217.92 1.45Q215.97 1.45 214.05 0.9 212.12 0.35 212.12-1L212.12-1Q213.17-9.4 213.17-19.05L213.17-19.05Q211.82-19.05 211.12-18.95L211.12-18.95 211.07-18.95Q210.62-18.95 210.52-19.5ZM226.72-12.7L226.72-12.7 226.77-11.45Q226.77-11.15 227.17-11.15L227.17-11.15Q228.77-11.3 229.97-11.98 231.17-12.65 231.77-13.5L231.77-13.5Q232.97-15.35 233.07-16.7L233.07-16.7 233.12-17.3Q233.12-20 230.97-20L230.97-20Q229.37-20 228.37-18.6L228.37-18.6Q226.72-16.4 226.72-12.7ZM237.62-6.05L237.62-6.05Q237.62-4.15 236.84-2.73 236.07-1.3 235.09-0.63 234.12 0.05 232.82 0.45L232.82 0.45Q231.17 0.95 229.67 0.95L229.67 0.95Q225.47 0.95 223.47-2.2 221.47-5.35 221.47-10.23 221.47-15.1 223.94-18.9 226.42-22.7 231.37-22.7L231.37-22.7Q235.87-22.7 237.47-19.55L237.47-19.55Q238.12-18.35 238.12-17.28 238.12-16.2 238.02-15.58 237.92-14.95 237.32-13.7 236.72-12.45 235.72-11.45 234.72-10.45 232.57-9.55 230.42-8.65 227.52-8.35L227.52-8.35Q227.12-8.35 227.12-8L227.12-8Q227.12-7.55 227.44-6.68 227.77-5.8 228.17-5.2L228.17-5.2Q229.27-3.8 231.42-3.8L231.42-3.8Q233.57-3.8 235.07-5.2L235.07-5.2Q235.87-5.95 236.37-7.05L236.37-7.05Q236.57-7.45 236.89-7.45 237.22-7.45 237.42-6.9 237.62-6.35 237.62-6.05Z" opacity="1" transform="matrix(1,0,0,1,0,0)" fill="#000000" class="wordmark-text-0" data-fill-palette-color="primary" id="text-0"></path></svg></g></svg></g></svg></g></svg></g><g transform="matrix(1,0,0,1,143.122504931553,0)"><svg viewBox="0 0 111.25259013689387 114.86454345694531" height="114.86454345694531" width="111.25259013689387"><g><svg xmlns="http://www.w3.org/2000/svg" xmlns:xlink="http://www.w3.org/1999/xlink" version="1.1" x="8" y="0" viewBox="13.011 2 101.99900016343582 123" style="enable-background:new 0 0 128 128;" xml:space="preserve" height="114.86454345694531" width="95.25259013689387" class="icon-icon-0" data-fill-palette-color="accent" id="icon-0"><g fill="#000000" data-fill-palette-color="accent"><path d="M99.011 4C99.011 2.895 98.116 2 97.011 2S95.355 2.688 95.011 4L87.944 57H91.944z" fill="#000000" data-fill-palette-color="accent"></path><path d="M19.011 28L24.011 29V31C24.011 33.209 25.636 34.562 28.011 35L38.011 38V42H42.011V25L53.011 23C55.386 22.562 57.011 21.209 57.011 19V16L61.011 15A2 2 0 1 0 61.011 11L57.011 12V8A2 2 0 1 0 53.011 8V18C53.011 18.552 52.612 18.799 52.011 19L42.011 21V4C42.011 2.895 41.116 2 40.011 2S38.355 2.688 38.011 4V12L28.011 10C27.41 9.799 27.011 9.552 27.011 9V5A2 2 0 1 0 23.011 5V10C23.011 12.209 24.636 13.562 27.011 14L38.011 16V34L29.011 31C28.41 30.799 28.011 30.552 28.011 30V21A2 2 0 1 0 24.011 21V25L20.011 24C19.416 23.801 19.011 23.552 19.011 23V22A2 2 0 1 0 15.011 22V24C15.011 26.209 16.782 27.417 19.011 28" fill="#000000" data-fill-palette-color="accent"></path><path d="M67.011 101C67.011 112.028 76.88 121 89.011 121S111.011 112.028 111.011 101C111.011 98.211 110.254 95.389 108.765 92.597 106.713 93.767 102.426 94.372 98.236 94.682L100.99 107.794A1 1 0 0 1 100.961 108.314C100.465 109.812 99.673 110.694 98.607 110.939A2.6 2.6 0 0 1 98.036 111.003C96.607 111.003 95.438 109.844 95.294 109.696A1 1 0 0 1 95.033 109.203L92.073 94.965A135 135 0 0 1 87.887 94.995L86.002 109.132A1 1 0 0 1 85.972 109.275C85.779 109.949 85.191 112 83.011 112 81.357 112 80.011 110.654 80.011 109 80.011 108.956 80.014 108.912 80.02 108.868L81.894 94.816C77.115 94.562 71.657 93.965 69.258 92.597 67.768 95.39 67.011 98.211 67.011 101" fill="#000000" data-fill-palette-color="accent"></path><path d="M97.817 92.686C103 92.295 106.499 91.604 107.699 91.004 106.562 90.449 103.2 89.67 97.098 89.261z" fill="#000000" data-fill-palette-color="accent"></path><path d="M99.011 61C99.011 59.897 98.114 59 97.011 59H81.011C79.908 59 79.011 59.897 79.011 61S79.908 63 81.011 63H97.011C98.114 63 99.011 62.103 99.011 61" fill="#000000" data-fill-palette-color="accent"></path><path d="M94.102 94.906L96.924 108.478C97.252 108.745 97.796 109.08 98.162 108.989 98.448 108.922 98.739 108.541 98.974 107.93L96.22 94.811C95.494 94.85 94.785 94.881 94.102 94.906" fill="#000000" data-fill-palette-color="accent"></path><path d="M82.16 92.816L82.647 89.161C75.3 89.533 71.534 90.432 70.329 91.007 71.682 91.68 75.906 92.466 82.16 92.816" fill="#000000" data-fill-palette-color="accent"></path><path d="M90.323 76.729L93.688 92.913A114 114 0 0 0 95.801 92.818L91.138 70.613z" fill="#000000" data-fill-palette-color="accent"></path><path d="M88.154 92.994C88.44 92.996 88.72 93 89.011 93 89.922 93 90.799 92.988 91.657 92.971L90.836 89.021C90.232 89.011 89.632 89 89.011 89L88.686 89.003z" fill="#000000" data-fill-palette-color="accent"></path><path d="M88.953 87.005C89.444 87.004 89.93 87.006 90.418 87.011L89.525 82.715z" fill="#000000" data-fill-palette-color="accent"></path><path d="M82.013 109.055C82.042 109.581 82.479 110 83.012 110 83.291 110 83.671 110 84.031 108.792L85.875 94.964C85.255 94.95 84.592 94.931 83.9 94.906z" fill="#000000" data-fill-palette-color="accent"></path><path d="M84.166 92.908C84.806 92.932 85.466 92.951 86.141 92.966L89.869 65H87.887z" fill="#000000" data-fill-palette-color="accent"></path><path d="M29.011 58H51.011C51.562 58 52.011 57.551 52.011 57S51.562 56 51.011 56H29.011C28.46 56 28.011 56.449 28.011 57S28.46 58 29.011 58" fill="#000000" data-fill-palette-color="accent"></path><path d="M43.011 77.022V80.978C54.974 80.82 60.891 79.734 62.613 78.996 60.83 78.218 54.711 77.183 43.011 77.022" fill="#000000" data-fill-palette-color="accent"></path><path d="M102.424 80.834C97.203 77.383 94.975 72.947 94.975 66V65H92.002L96.671 87.231C108.529 87.953 109.847 89.787 109.992 90.704 111.991 94.093 113.011 97.556 113.011 101 113.011 113.131 102.244 123 89.011 123S65.011 113.131 65.011 101C65.011 97.534 66.043 94.049 68.068 90.637 68.624 88.75 73.618 87.579 82.916 87.147L85.869 65H82.995V66C82.995 72.947 80.767 77.384 75.546 80.834 72.914 82.573 70.661 84.539 68.809 86.658A1 1 0 0 1 68.661 86.832C67.124 88.619 65.874 90.514 64.945 92.479A1 1 0 0 1 64.857 92.654C63.614 95.343 62.958 98.158 62.958 100.999 62.958 114.231 74.645 124.998 89.01 124.999 103.346 124.998 115.01 114.231 115.01 100.999 115.011 93.471 110.423 86.121 102.424 80.834" fill="#000000" data-fill-palette-color="accent"></path><path d="M65.011 116.286A6.72 6.72 0 0 1 58.297 123H21.726A6.72 6.72 0 0 1 15.012 116.286V79C15.012 75.972 26.743 75.156 37.012 75.023V60H30.012C30.012 61.934 28.91 63.528 27.27 63.966 18.741 66.244 13.011 73.492 13.011 82V116C13.011 120.962 17.049 125 22.011 125H58.011C62.584 125 66.427 121.518 66.933 117.01A26 26 0 0 1 65.011 114.447z" fill="#000000" data-fill-palette-color="accent"></path><path d="M39.011 82.994V107C39.011 107.551 39.46 108 40.011 108 40.285 108 40.657 108 41.011 106.854V82.994C40.677 82.996 40.349 83 40.011 83S39.346 82.996 39.011 82.994" fill="#000000" data-fill-palette-color="accent"></path><path d="M29.011 52C28.46 52 28.011 52.449 28.011 53S28.46 54 29.011 54H51.011C51.562 54 52.011 53.551 52.011 53S51.562 52 51.011 52z" fill="#000000" data-fill-palette-color="accent"></path><path d="M41.011 60H39.011V80.995C39.347 80.996 39.667 81 40.011 81S40.675 80.996 41.011 80.995z" fill="#000000" data-fill-palette-color="accent"></path><path d="M17.011 116.286A4.72 4.72 0 0 0 21.725 121H58.297A4.72 4.72 0 0 0 63.011 116.286V110.744A24.2 24.2 0 0 1 60.959 101.001C60.959 97.889 61.668 94.814 63.011 91.886V80.979C61.873 81.398 60.14 81.776 57.524 82.114 53.751 82.601 48.673 82.9 43.011 82.978V107A1 1 0 0 1 42.972 107.275C42.779 107.949 42.191 110 40.011 110 38.357 110 37.011 108.654 37.011 107V82.977C31.349 82.899 26.272 82.6 22.498 82.113 19.882 81.775 18.149 81.398 17.011 80.978z" fill="#000000" data-fill-palette-color="accent"></path><path d="M55.011 47C55.011 45.346 53.665 44 52.011 44H28.011C26.357 44 25.011 45.346 25.011 47S26.357 50 28.011 50H52.011C53.666 50 55.011 48.654 55.011 47" fill="#000000" data-fill-palette-color="accent"></path><path d="M67.011 85.687V82C67.011 73.492 61.281 66.244 52.753 63.966 51.113 63.528 50.011 61.933 50.011 60H43.011V75.024C43.016 75.024 43.02 75.021 43.025 75.022 57.614 75.222 65.011 76.561 65.011 79V88.335A29 29 0 0 1 67.011 85.687" fill="#000000" data-fill-palette-color="accent"></path><path d="M37.011 77.026C25.055 77.19 19.153 78.279 17.423 79.002 19.162 79.74 25.08 80.82 37.011 80.978z" fill="#000000" data-fill-palette-color="accent"></path><path d="M85.927 57L87.239 47.181 79.011 8C78.615 6.975 78.116 6 77.011 6S75.011 6.604 75.011 8L85.199 57z" fill="#000000" data-fill-palette-color="accent"></path></g></svg></g></svg></g><g><rect width="66.58938493155306" height="7.4953712511983905" y="106.36917220574692" x="254.37509506844688" fill="#000000" data-fill-palette-color="secondary"></rect><rect width="66.58938493155306" height="7.4953712511983905" y="106.36917220574692" x="76.53311999999997" fill="#000000" data-fill-palette-color="secondary"></rect></g></svg></g><defs></defs></svg><rect width="395.52" height="243.49991684550017" fill="none" stroke="none" visibility="hidden"></rect></g></svg></g></svg>